<?xml version="1.0" encoding="UTF-8" standalone="no"?>
<!-- Created with Inkscape (http://www.inkscape.org/) -->

<svg
   xmlns:dc="http://purl.org/dc/elements/1.1/"
   xmlns:cc="http://creativecommons.org/ns#"
   xmlns:rdf="http://www.w3.org/1999/02/22-rdf-syntax-ns#"
   xmlns:svg="http://www.w3.org/2000/svg"
   xmlns="http://www.w3.org/2000/svg"
   xmlns:xlink="http://www.w3.org/1999/xlink"
   xmlns:sodipodi="http://sodipodi.sourceforge.net/DTD/sodipodi-0.dtd"
   xmlns:inkscape="http://www.inkscape.org/namespaces/inkscape"
   version="1.0"
   width="562.72638"
   height="529.08258"
   viewBox="0 0 3681.4457 3325.1823"
   id="Layer_1"
   xml:space="preserve"
   inkscape:version="0.48.2 r9819"
   sodipodi:docname="home.svg"><metadata
   id="metadata101"><rdf:RDF><cc:Work
       rdf:about=""><dc:format>image/svg+xml</dc:format><dc:type
         rdf:resource="http://purl.org/dc/dcmitype/StillImage" /></cc:Work></rdf:RDF></metadata><sodipodi:namedview
   pagecolor="#ffffff"
   bordercolor="#666666"
   borderopacity="1"
   objecttolerance="10"
   gridtolerance="10"
   guidetolerance="10"
   inkscape:pageopacity="0"
   inkscape:pageshadow="2"
   inkscape:window-width="640"
   inkscape:window-height="480"
   id="namedview99"
   showgrid="false"
   fit-margin-top="0"
   fit-margin-left="0"
   fit-margin-right="0"
   fit-margin-bottom="0"
   inkscape:zoom="0.36875"
   inkscape:cx="275.37566"
   inkscape:cy="263.23746"
   inkscape:window-x="0"
   inkscape:window-y="0"
   inkscape:window-maximized="0"
   inkscape:current-layer="Layer_1" /><defs
   id="defs101"><linearGradient
   id="linearGradient3813"><stop
     id="stop3815"
     style="stop-color:#033783;stop-opacity:1"
     offset="0" /><stop
     id="stop3817"
     style="stop-color:#033783;stop-opacity:0"
     offset="1" /></linearGradient><linearGradient
   id="linearGradient3360"><stop
     id="stop3362"
     style="stop-color:#024cb0;stop-opacity:1"
     offset="0" /><stop
     id="stop3364"
     style="stop-color:#3799dc;stop-opacity:1"
     offset="1" /></linearGradient><linearGradient
   id="linearGradient3352"><stop
     id="stop3354"
     style="stop-color:#024cb0;stop-opacity:1"
     offset="0" /><stop
     id="stop3356"
     style="stop-color:#3799dc;stop-opacity:1"
     offset="1" /></linearGradient><linearGradient
   id="linearGradient3344"><stop
     id="stop3346"
     style="stop-color:#85b1de;stop-opacity:1"
     offset="0" /><stop
     id="stop3348"
     style="stop-color:#ffffff;stop-opacity:1"
     offset="1" /></linearGradient><linearGradient
   id="linearGradient3336"><stop
     id="stop3338"
     style="stop-color:#7fa3c8;stop-opacity:1"
     offset="0" /><stop
     id="stop3340"
     style="stop-color:#ffffff;stop-opacity:1"
     offset="1" /></linearGradient>
	
	
	
	
	
	
	
	
	
	
	
	
	
	
	
	
	
	
	
	
	
	
	
	
	
	
	
	
	
	
	
	
<linearGradient
   x1="967.34991"
   y1="2960.6658"
   x2="2751"
   y2="1692.4739"
   id="linearGradient3342"
   xlink:href="#linearGradient3336"
   gradientUnits="userSpaceOnUse" /><linearGradient
   x1="3099.249"
   y1="3057.6887"
   x2="5199.2808"
   y2="1826.8004"
   id="linearGradient3350"
   xlink:href="#linearGradient3344"
   gradientUnits="userSpaceOnUse" /><linearGradient
   x1="830.40503"
   y1="2845.3833"
   x2="1535.345"
   y2="2845.3833"
   id="linearGradient3358"
   xlink:href="#linearGradient3352"
   gradientUnits="userSpaceOnUse" /><linearGradient
   x1="1827.714"
   y1="2716.415"
   x2="2386.3921"
   y2="2716.415"
   id="linearGradient3366"
   xlink:href="#linearGradient3352"
   gradientUnits="userSpaceOnUse" /><linearGradient
   x1="2322.6907"
   y1="2372.1423"
   x2="4048.8481"
   y2="1718.0686"
   id="linearGradient3819"
   xlink:href="#linearGradient3813"
   gradientUnits="userSpaceOnUse"
   gradientTransform="translate(35.35534,-70.710679)" /><filter
   height="1.3203124"
   y="-0.16015618"
   width="1.1471732"
   x="-0.073586613"
   id="filter3877"
   color-interpolation-filters="sRGB"><feGaussianBlur
     id="feGaussianBlur3879"
     stdDeviation="54.822929"
     inkscape:collect="always" /></filter></defs>

<g
   transform="matrix(0.8606945,0,0,0.8606945,-0.30468585,-82.657186)"
   id="g3881"><g
     id="LINE"
     style="stroke:none">
		
			<line
   x1="1534.54"
   y1="2256.886"
   x2="831.55402"
   y2="2156.585"
   id="line5"
   style="fill:none;stroke:none" />
	</g><g
     id="LINE_1_"
     style="stroke:none">
		
			<line
   x1="2384.9189"
   y1="2458.5149"
   x2="1828.5959"
   y2="2375.7749"
   id="line8"
   style="fill:none;stroke:none" />
	</g><g
     id="LINE_2_"
     style="stroke:none">
		
			<line
   x1="2748.043"
   y1="3865.615"
   x2="353.436"
   y2="3214.3679"
   id="line11"
   style="fill:none;stroke:none" />
	</g><g
     id="LINE_3_"
     style="stroke:none">
		
			<line
   x1="2748.043"
   y1="4021.9231"
   x2="272.82901"
   y2="3319.2451"
   id="line14"
   style="fill:none;stroke:none" />
	</g><g
     id="LINE_4_"
     style="stroke:none">
		
			<line
   x1="353.436"
   y1="3214.3679"
   x2="353.436"
   y2="1664.481"
   id="line17"
   style="fill:none;stroke:none" />
	</g><g
     id="LINE_5_"
     style="stroke:none">
		
			<line
   x1="272.82901"
   y1="3319.2451"
   x2="272.82901"
   y2="1673.2159"
   id="line20"
   style="fill:none;stroke:none" />
	</g><g
     id="LINE_6_"
     style="stroke:none">
		
			<line
   x1="2748.043"
   y1="2067.7119"
   x2="2748.043"
   y2="4021.9231"
   id="line23"
   style="fill:none;stroke:none" />
	</g><g
     id="LINE_7_"
     style="stroke:none">
		
			<line
   x1="3861.53"
   y1="1663.715"
   x2="3861.53"
   y2="2966.7029"
   id="line26"
   style="fill:none;stroke:none" />
	</g><g
     id="LINE_8_"
     style="stroke:none">
		
			<line
   x1="2748.043"
   y1="4021.9231"
   x2="3861.53"
   y2="2966.7029"
   id="line29"
   style="fill:none;stroke:none" />
	</g><g
     id="LINE_9_"
     style="stroke:none">
		
			<line
   x1="2748.043"
   y1="3865.615"
   x2="3861.53"
   y2="2808.8799"
   id="line32"
   style="fill:none;stroke:none" />
	</g><g
     id="LINE_10_"
     style="stroke:none">
		
			<line
   x1="2936.6431"
   y1="2274.803"
   x2="4186.6279"
   y2="1448.918"
   id="line35"
   style="fill:none;stroke:none" />
	</g><g
     id="LINE_11_"
     style="stroke:none">
		
			<line
   x1="2817.366"
   y1="79.656998"
   x2="1594.9969"
   y2="331.28299"
   id="line38"
   style="fill:none;stroke:none" />
	</g><g
     id="LINE_12_"
     style="stroke:none">
		
			<line
   x1="1234.291"
   y1="405.534"
   x2="1230.923"
   y2="406.228"
   id="line41"
   style="fill:none;stroke:none" />
	</g><g
     id="LINE_13_"
     style="stroke:none">
		
			<line
   x1="272.82901"
   y1="1746.9"
   x2="36.484001"
   y2="1746.9"
   id="line44"
   style="fill:none;stroke:none" />
	</g><g
     id="LINE_14_"
     style="stroke:none">
		
			<line
   x1="0.354"
   y1="1666.052"
   x2="923.22302"
   y2="683.82098"
   id="line47"
   style="fill:none;stroke:none" />
	</g><g
     id="LINE_15_"
     style="stroke:none">
		
			<line
   x1="1004.657"
   y1="704.31403"
   x2="22.108"
   y2="1714.729"
   id="line50"
   style="fill:none;stroke:none" />
	</g><g
     id="LINE_16_"
     style="stroke:none">
		
			<line
   x1="923.22302"
   y1="683.82098"
   x2="923.22302"
   y2="44.806"
   id="line53"
   style="fill:none;stroke:none" />
	</g><g
     id="LINE_17_"
     style="stroke:none">
		
			<line
   x1="1004.657"
   y1="704.31403"
   x2="1004.657"
   y2="0.354"
   id="line56"
   style="fill:none;stroke:none" />
	</g><g
     id="LINE_18_"
     style="stroke:none">
		
			<line
   x1="2817.366"
   y1="79.656998"
   x2="4186.6279"
   y2="1448.918"
   id="line59"
   style="fill:none;stroke:none" />
	</g><g
     id="LINE_19_"
     style="stroke:none">
		
			<line
   x1="2936.6431"
   y1="2274.803"
   x2="1410.504"
   y2="599.02502"
   id="line62"
   style="fill:none;stroke:none" />
	</g><g
     id="LINE_20_"
     style="stroke:none">
		
			<line
   x1="1410.504"
   y1="599.02502"
   x2="353.436"
   y2="1664.481"
   id="line65"
   style="fill:none;stroke:none" />
	</g><g
     id="LINE_22_"
     style="stroke:none">
		
			<line
   x1="1828.5959"
   y1="2960.04"
   x2="2384.9189"
   y2="3059.05"
   id="line71"
   style="fill:none;stroke:none" />
	</g><g
     id="LINE_23_"
     style="stroke:none">
		
			<line
   x1="1828.5959"
   y1="2375.7749"
   x2="1828.5959"
   y2="2960.04"
   id="line74"
   style="fill:none;stroke:none" />
	</g><g
     id="LINE_24_"
     style="stroke:none">
		
			<line
   x1="2384.9189"
   y1="2458.5149"
   x2="2384.9189"
   y2="3059.05"
   id="line77"
   style="fill:none;stroke:none" />
	</g><g
     id="LINE_25_"
     style="stroke:none">
		
			<line
   x1="1534.54"
   y1="3535.5859"
   x2="1534.54"
   y2="2256.886"
   id="line80"
   style="fill:none;stroke:none" />
	</g><g
     id="LINE_26_"
     style="stroke:none">
		
			<line
   x1="831.55402"
   y1="3344.3989"
   x2="831.55402"
   y2="2156.585"
   id="line83"
   style="fill:none;stroke:none" />
	</g><g
     id="LINE_27_"
     style="stroke:none">
		
			<line
   x1="0.354"
   y1="1666.052"
   x2="36.484001"
   y2="1746.9"
   id="line86"
   style="fill:none;stroke:none" />
	</g><g
     id="LINE_28_"
     style="stroke:none">
		
			<line
   x1="1004.657"
   y1="0.354"
   x2="1594.9969"
   y2="0.354"
   id="line89"
   style="fill:none;stroke:none" />
	</g><g
     id="LINE_29_"
     style="stroke:none">
		
			<line
   x1="923.22302"
   y1="44.806"
   x2="1004.657"
   y2="44.806"
   id="line92"
   style="fill:none;stroke:none" />
	</g><g
     transform="matrix(1.0924976,0,0,1,24.054831,0)"
     id="LINE_30_"
     style="stroke:none">
		
			<line
   x1="301.03"
   y1="1673.2159"
   x2="35.755001"
   y2="1673.2159"
   id="line95"
   style="fill:none;stroke:none" />
	</g><g
     id="LINE_31_"
     style="stroke:none">
		
			<line
   x1="1594.9969"
   y1="0.354"
   x2="1594.9969"
   y2="331.28299"
   id="line98"
   style="fill:none;stroke:none" />
	</g><path
     d="m 927,47.875 0,634.34375 -924.6875,984.15625 22.84375,48.3125 250.34375,0 0,1603.4063 2475.5,697.5 c 371.164,-348.0155 737.7681,-700.5589 1108,-1049.5626 l 0,-153.875 -1108,1047.9063 -2393.09375,-646.375 0,-1549.7813 -283.34375,0 932.0313,-957.99995 0,-658.03125 -79.5938,0 z"
     transform="translate(0,-8.1701689e-5)"
     id="path2546"
     style="fill:#666666;fill-opacity:1;stroke:none"
     inkscape:connector-curvature="0" /><path
     d="m 2751,2065.8921 186.507,204.369 920.9946,-606.984 0.4985,1149.6809 L 2751,3860.0772 l 0,-1794.1851 z"
     transform="translate(0,-8.1701689e-5)"
     id="path2556"
     style="fill:url(#linearGradient3350);fill-opacity:1;stroke:none"
     inkscape:connector-curvature="0" /><path
     d="m 860.00001,3343.8892 0,-1147.6121 672.98499,58.814 2.36,1280.9631 -675.34499,-192.165 z"
     transform="translate(0,-8.1701689e-5)"
     id="path2558"
     style="fill:url(#linearGradient3358);fill-opacity:1;stroke:none"
     inkscape:connector-curvature="0" /><path
     d="M 2358.046,1849.1651 4146.0754,1537.1073 2902.1516,2358.6493 2358.046,1849.1651 z"
     id="path3391"
     style="fill:url(#linearGradient3819);fill-opacity:1;stroke:none;filter:url(#filter3877)"
     inkscape:connector-curvature="0" /><path
     d="m 1535.345,3536.0542 -2.36,-1280.9631 -702.57999,-100.379 0,1189.1771 -472.491,-130.2 0,-1549.7841 L 1411.6863,598.60806 2751,2065.8921 l 0,1794.1851 -1215.655,-324.023 z m 851.047,-1079.1731 -557.908,-82.792 -0.77,587.642 557.924,97.01 0.754,-601.86 z"
     transform="translate(0,-8.1701689e-5)"
     id="path2554"
     style="fill:url(#linearGradient3342);fill-opacity:1;stroke:none"
     inkscape:connector-curvature="0" /><path
     d="m 1855,2961.7311 0,-557.454 531.015,52.604 0,601.86 -531.015,-97.01 z"
     transform="translate(0,-8.1701689e-5)"
     id="path2560"
     style="fill:url(#linearGradient3366);fill-opacity:1;stroke:none"
     inkscape:connector-curvature="0" /><path
     d="m 830.40501,2154.7121 0.78249,1186.3504 704.1575,194.9917 -675.25125,-191.6792 -0.0937,-1148.0979 672.98495,58.814 -702.57995,-100.379 z"
     transform="translate(0,-8.1701689e-5)"
     id="path3374"
     style="fill:#033783;fill-opacity:1;stroke:none"
     inkscape:connector-curvature="0" /><path
     d="M 1411.2046,599.77658 357.91401,1663.9051 l -288.124087,0 936.748377,-958.83376 0,-684.896505 587.8642,0 1.595,312.751015 L 2817.6655,81.398297 4181.4308,1448.7191 2937.507,2270.2611 1411.2046,599.77658 z"
     transform="translate(0,-8.1701689e-5)"
     id="path2544"
     style="fill:#b7400c;fill-opacity:1;stroke:none"
     inkscape:connector-curvature="0" /><g
     id="g3386"><path
       d="m 1828.484,2374.0891 -0.77,587.642 558.301,97.01 -531.015,-97.01 0,-557.454 531.015,52.604 -557.531,-82.792 z"
       transform="translate(0,-8.1701689e-5)"
       id="path3379"
       style="fill:#033783;fill-opacity:1;stroke:none"
       inkscape:connector-curvature="0" /></g></g></svg>