<?xml version="1.0" encoding="utf-8"?>
<!-- Generator: Adobe Illustrator 16.0.0, SVG Export Plug-In . SVG Version: 6.00 Build 0)  -->
<!DOCTYPE svg PUBLIC "-//W3C//DTD SVG 1.1//EN" "http://www.w3.org/Graphics/SVG/1.1/DTD/svg11.dtd">
<svg version="1.1" id="Layer_1" xmlns="http://www.w3.org/2000/svg" xmlns:xlink="http://www.w3.org/1999/xlink" x="0px" y="0px"
	 width="200px" height="200px" viewBox="0 0 200 200" enable-background="new 0 0 200 200" xml:space="preserve">
<g>
	<path fill="#F0F2F1" d="M157.309,79.476c9.784,22.283-7.938,51.613-39.59,65.512c-31.65,13.898-65.239,7.104-75.026-15.178
		c-9.787-22.287,7.938-51.618,39.589-65.519C113.932,50.397,147.52,57.194,157.309,79.476"/>
	<path fill="#818181" d="M126.755,90.764v25.132c0,0.957-0.778,1.738-1.737,1.738H74.981c-0.959,0-1.741-0.781-1.741-1.738V90.764
		H60.687v25.132c0,7.895,6.399,14.297,14.294,14.297h50.037c7.896,0,14.295-6.402,14.295-14.297V90.764H126.755z"/>
	<polygon fill="#01B386" points="88.717,110.479 111.284,110.479 111.284,82.728 119.329,82.728 100.002,53.455 80.667,82.728 
		88.717,82.728 	"/>
</g>
</svg>
