<?xml version="1.0" encoding="utf-8"?>
<!-- Generator: Adobe Illustrator 16.2.1, SVG Export Plug-In . SVG Version: 6.00 Build 0)  -->
<!DOCTYPE svg PUBLIC "-//W3C//DTD SVG 1.1//EN" "http://www.w3.org/Graphics/SVG/1.1/DTD/svg11.dtd">
<svg version="1.1" id="Layer_1" xmlns="http://www.w3.org/2000/svg" xmlns:xlink="http://www.w3.org/1999/xlink" x="0px" y="0px"
	 width="512px" height="512px" viewBox="0 0 512 512" enable-background="new 0 0 512 512" xml:space="preserve">
<g>
	<path fill="#7FB6FF" d="M512,399.618C512,461.704,461.672,512,399.592,512H112.396C50.31,512,0,461.704,0,399.618V112.404
		C0,50.33,50.31,0,112.396,0h287.196C461.672,0,512,50.33,512,112.404V399.618z"/>
	<linearGradient id="SVGID_1_" gradientUnits="userSpaceOnUse" x1="256.0005" y1="512" x2="256.0005" y2="4.882812e-04">
		<stop  offset="0" style="stop-color:#1D1D1B;stop-opacity:0.2"/>
		<stop  offset="1" style="stop-color:#FFFFFF;stop-opacity:0.3"/>
	</linearGradient>
	<path fill="url(#SVGID_1_)" d="M512,399.618C512,461.704,461.672,512,399.592,512H112.396C50.31,512,0,461.704,0,399.618V112.404
		C0,50.33,50.31,0,112.396,0h287.196C461.672,0,512,50.33,512,112.404V399.618z"/>
	<path opacity="0.1" fill="#FFFFFF" d="M512,399.618C512,461.704,461.672,512,399.592,512H112.396C50.31,512,0,461.704,0,399.618
		V112.404C0,50.33,50.31,0,112.396,0h287.196C461.672,0,512,50.33,512,112.404V399.618z"/>
</g>
<g>
	<path fill="none" d="M358.925,341.416"/>
</g>
<g>
	<path fill="none" d="M156.332,371.416"/>
</g>
<g>
	<path fill="none" stroke="#00E893" stroke-width="14.9056" stroke-linejoin="round" stroke-miterlimit="10" d="M210.872,404.145
		h-21.583c-0.625,0-1.253-0.02-1.863-0.041c-16.923-0.984-23.726-15.195-23.726-32.584"/>
	<g>
		<g>
			<g>
				<g>
					<path fill="none" stroke="#FF83C1" stroke-width="14.9056" stroke-linejoin="round" stroke-miterlimit="10" d="M352.07,371.52
						c0,17.042-6.236,31.034-22.674,32.504c-0.945,0.08-1.918,0.121-2.886,0.121H305.16"/>
				</g>
			</g>
		</g>
	</g>
	
		<line fill="none" stroke="#FF4E67" stroke-width="14.9056" stroke-linejoin="round" stroke-miterlimit="10" x1="258.042" y1="404.145" x2="210.872" y2="404.145"/>
	<g>
		<line fill="#4F00A9" x1="305.215" y1="404.145" x2="258.042" y2="404.145"/>
		
			<line fill="none" stroke="#D030FF" stroke-width="14.9053" stroke-linejoin="round" stroke-miterlimit="10" x1="305.215" y1="404.145" x2="258.042" y2="404.145"/>
		
			<line opacity="0.1" fill="none" stroke="#FFFFFF" stroke-width="14.9053" stroke-linejoin="round" stroke-miterlimit="10" x1="305.215" y1="404.145" x2="258.042" y2="404.145"/>
	</g>
</g>
<g>
	<g>
		<g>
			<path fill="#FFFFFF" d="M371.586,201.141c15.728,0,28.447,12.894,28.447,28.818c0,15.918-12.72,28.833-28.447,28.833
				c-10.174,0-16.514-1.873-21.528-10.039l0.697,1.305c1.792,4.955,2.267,5.635,2.267,12c0,6.963-2.345,13.361-6.234,18.471
				l-0.187-0.137c6.697,4.602,11.103,12.371,11.103,21.197c0,7.562-2.548,12.309-7.709,16.992l0,0
				c2.279,3.406,3.607,7.521,3.607,11.957c0,5.402-1.968,10.34-5.241,14.086l0,0c6.835,6.029,11.147,14.9,11.147,24.791
				c0,17.148-12.971,31.23-29.506,32.711c-0.95,0.08-1.928,0.121-2.902,0.121H188.746c-0.629,0-1.261-0.02-1.875-0.041
				c-17.024-0.992-30.531-15.291-30.531-32.791c0-8.152,2.92-15.59,7.758-21.34c-2.996-3.689-4.793-8.424-4.793-13.584
				c0-4.062,1.122-7.871,3.063-11.102l0.214,0.225c-4.566-4.623-7.388-11.014-7.388-18.066c0-7.451,3.14-14.15,8.144-18.816l0,0
				c-5.049-5.404-8.144-12.689-8.144-20.717c0-4.975,1.189-9.678,3.301-13.801l0,0c-4.915,4.113-11.216,6.578-18.091,6.578
				c-15.706,0-28.438-12.916-28.438-28.833c0-15.925,12.732-28.818,28.438-28.818c3.211,0,6.28,0.523,9.159,1.521l0,0
				c-0.233-1.387-0.354-2.822-0.354-4.28c0-14.11,11.292-25.549,25.219-25.549c4.665,0,9.033,1.283,12.781,3.523l0.394-0.661
				c0-17.635,14.093-31.933,31.485-31.933c1.628,0,3.242,0.126,4.817,0.376l0.644,0.111c0-20.16,16.118-36.498,36.008-36.498
				c19.878,0,34.186,17.666,34.186,37.817l0,0c3.286-1.162,6.812-1.807,10.473-1.807c17.398,0,31.498,14.298,31.498,31.933
				c0,0.58-0.022,1.157-0.04,1.738l-0.014-0.008c3.532-1.897,7.555-2.982,11.845-2.982
				C362.432,174.444,371.586,187.01,371.586,201.141"/>
		</g>
	</g>
</g>
<path fill="none" stroke="#FFFFFF" stroke-width="13" stroke-linejoin="round" stroke-miterlimit="10" d="M-218.668,267.416"/>
</svg>
