<?xml version="1.0" encoding="UTF-8" standalone="no"?>
<!-- Created with Inkscape (http://www.inkscape.org/) -->

<svg
   xmlns:dc="http://purl.org/dc/elements/1.1/"
   xmlns:cc="http://creativecommons.org/ns#"
   xmlns:rdf="http://www.w3.org/1999/02/22-rdf-syntax-ns#"
   xmlns:svg="http://www.w3.org/2000/svg"
   xmlns="http://www.w3.org/2000/svg"
   version="1.1"
   width="93.879997"
   height="93.877502"
   viewBox="0 0 94 94"
   id="svg2"
   xml:space="preserve"><metadata
     id="metadata8"><rdf:RDF><cc:Work
         rdf:about=""><dc:format>image/svg+xml</dc:format><dc:type
           rdf:resource="http://purl.org/dc/dcmitype/StillImage" /><dc:title></dc:title></cc:Work></rdf:RDF></metadata><defs
     id="defs6"><clipPath
       id="clipPath30"><path
         d="m 0,595.275 841.89,0 L 841.89,0 0,0 0,595.275 z"
         id="path32" /></clipPath></defs><g
     transform="matrix(1.25,0,0,-1.25,-607.93012,288.98563)"
     id="g10"><g
       transform="translate(523.897,169.1572)"
       id="g124"><path
         d="m 0,0 c -5.091,0 -9.228,4.141 -9.228,9.228 0,2.574 1.071,5.019 2.952,6.763 l 0,3.671 2.524,0 0,1.132 -2.524,0 0,3.486 3.796,0 0,1.132 -3.796,0 0,3.488 2.524,0 0,1.132 -2.524,0 0,3.486 3.796,0 0,1.133 -3.796,0 0,3.486 2.524,0 0,1.133 -2.524,0 0,2.187 c 0,1.012 0.744,1.836 1.66,1.836 l 9.236,0 c 0.913,0 1.657,-0.824 1.657,-1.836 l 0,-25.466 C 8.156,14.247 9.229,11.802 9.229,9.228 9.229,4.141 5.088,0 0,0 m 7.753,16.607 0,24.85 c 0,1.826 -1.404,3.314 -3.133,3.314 l -9.236,0 c -1.732,0 -3.139,-1.488 -3.139,-3.314 l 0,-24.85 c -1.881,-1.98 -2.949,-4.633 -2.949,-7.379 0,-5.904 4.801,-10.705 10.704,-10.705 5.904,0 10.705,4.801 10.705,10.705 0,2.746 -1.069,5.399 -2.952,7.379"
         id="path126"
         style="fill:#f05a23;fill-opacity:1;fill-rule:nonzero;stroke:none" /></g><g
       transform="translate(525.103,185.1016)"
       id="g128"><path
         d="m 0,0 0,20.577 -2.414,0 0,-20.577 c -3.335,-0.572 -5.874,-3.479 -5.874,-6.978 0,-3.911 3.171,-7.081 7.082,-7.081 3.91,0 7.082,3.17 7.082,7.081 C 5.876,-3.479 3.338,-0.572 0,0"
         id="path130"
         style="fill:#f05a23;fill-opacity:1;fill-rule:nonzero;stroke:none" /></g><g
       transform="translate(554.1011,163.0615)"
       id="g132"><path
         d="m 0,0 c -2.017,-1.878 -4.745,-3 -7.302,-3 l -45.803,0 c -2.557,0 -5.289,1.121 -7.304,3 -2.174,2.029 -3.375,4.764 -3.375,7.703 l 0,41.028 34.194,15.192 32.963,-14.581 0,-41.639 C 3.373,4.764 2.176,2.029 0,0 m -7.302,68.127 -45.803,0 c -7.17,0 -14.652,-5.96 -14.652,-14.678 l 0,-45.746 c 0,-8.72 7.482,-14.678 14.652,-14.678 l 45.803,0 c 7.166,0 14.649,5.958 14.649,14.678 l 0,45.746 c 0,8.718 -7.483,14.678 -14.649,14.678"
         id="path134"
         style="fill:#f05a23;fill-opacity:1;fill-rule:nonzero;stroke:none" /></g></g></svg>