<?xml version="1.0" encoding="utf-8"?>
<!-- Generator: Adobe Illustrator 16.0.3, SVG Export Plug-In . SVG Version: 6.00 Build 0)  -->
<!DOCTYPE svg PUBLIC "-//W3C//DTD SVG 1.1//EN" "http://www.w3.org/Graphics/SVG/1.1/DTD/svg11.dtd">
<svg version="1.1" id="Layer_1" xmlns="http://www.w3.org/2000/svg" xmlns:xlink="http://www.w3.org/1999/xlink" x="0px" y="0px"
	 width="300px" height="300px" viewBox="0 0 300 300" enable-background="new 0 0 300 300" xml:space="preserve">
<path fill="#242424" d="M299.974,259.83c0,22.405-17.938,40.572-40.058,40.572H43.438c-22.126,0-42.867-18.167-42.867-40.572V40.568
	C0.571,18.167,21.312,0,43.438,0h216.478c22.119,0,40.058,18.167,40.058,40.568V259.83z"/>
<path fill-rule="evenodd" clip-rule="evenodd" fill="#FFFFFF" d="M56.471,238.934c0-9.258-0.084-17.717,0.098-26.172
	c0.026-1.174,1.162-2.553,2.146-3.432c2.174-1.936,4.53-3.684,6.898-5.389c12.512-9.004,17.724-21.594,18.036-36.592
	c0.295-14.156,0.163-28.337,0.901-42.47c1.442-27.583,20.227-51.383,46.804-60.071c7.223-2.362,7.223-2.362,7.466-10.167
	c0.208-6.678,4.88-12.304,11.098-13.361c7.174-1.22,13.876,2.443,15.956,9.18c0.795,2.57,0.872,5.481,0.698,8.2
	c-0.193,3.043,0.906,4.264,3.8,5.127c27.537,8.211,44.75,26.335,49.7,54.687c1.937,11.096,1.015,22.687,1.454,34.051
	c0.271,6.992,0.632,13.98,0.989,20.967c0.643,12.533,6.277,22.762,16.5,29.438c8.437,5.51,11.464,12.117,10.096,21.732
	c-0.63,4.42-0.108,9.002-0.108,14.271c-2.013,0-3.691,0-5.369,0c-18.548,0-37.095,0.059-55.641-0.062
	c-2.689-0.02-4.135,0.863-5.506,3.145c-13.918,23.133-45.65,23.117-59.557-0.035c-1.387-2.309-2.86-3.125-5.523-3.107
	c-18.399,0.117-36.801,0.061-55.203,0.061C60.493,238.934,58.779,238.934,56.471,238.934z"/>
</svg>
