<svg xmlns:svg="http://www.w3.org/2000/svg" xmlns="http://www.w3.org/2000/svg" width="350" height="350" id="svg5361" version="1.1">
  <style id="style3118">
    
.s0{
	display:inline;
	fill-opacity:1;
	fill:#f60;
}
.s1{
	-inkscape-font-specification:Sans;
	baseline-shift:baseline;
	block-progression:tb;
	color:#000000;
	direction:ltr;
	display:inline;
	enable-background:accumulate;
	fill-opacity:1;
	fill:#f60;
	font-family:Sans;
	font-size:medium;
	font-stretch:normal;
	font-style:normal;
	font-variant:normal;
	font-weight:normal;
	letter-spacing:normal;
	line-height:normal;
	marker:none;
	overflow:visible;
	text-align:start;
	text-anchor:start;
	text-decoration:none;
	text-indent:0;
	text-transform:none;
	visibility:visible;
	word-spacing:normal;
	writing-mode:lr-tb;
}


  </style>
  <defs id="defs5363"/>
  <metadata id="metadata5366"/>
  <g id="layer1" transform="translate(-170.89168,42.862896)">
    <g transform="matrix(7.9545455,0,0,7.9545455,-936.71785,-18216.753)" id="g8125-8-5">
      <path d="m161.21738 2291.8332c-8.21865 0-14.88511 6.6664-14.88511 14.885 0 8.2187 6.66646 14.8851 14.88511 14.8851 8.21859 0 14.88509-6.6664 14.88509-14.8851 0-8.2186-6.6665-14.885-14.88509-14.885z" id="path4914-62-5" style="display:inline;fill-opacity:1;fill:#fff"/>
      <path id="path23943-71-6-9" d="m161.24237 2288.8574c-9.86191 0-17.86123 7.9995-17.86123 17.8611 0 9.862 7.99932 17.8615 17.86123 17.8615 9.86182 0 17.8612-7.9995 17.8612-17.8615 0-9.8616-7.99938-17.8611-17.8612-17.8611zm-0.61876 4.9776c2.47207-0.038 5.2942 0.6638 7.30126 2.145l0.0126 0c3.87794 2.8701 3.88404 7.7748 1.8975 11.2062 0 0-0.0126 0-0.0126 0l-8.47 14.2312-8.7587-14.3135c-1.90482-3.2906-2.0498-7.3782 1.0175-10.3265 1.99358-1.9159 4.2108-2.9131 7.01247-2.9562z" class="s0"/>
      <path id="path24009-15-5-3" d="m161.24237 2284.7176c-12.13963 0-22.00003 9.8604-22.00003 22 0 12.1396 9.8604 22 22.00003 22 12.13963 0 21.99997-9.8604 21.99997-22 0-12.1396-9.86034-22-21.99997-22zm0 1.831c11.14985 0 20.16897 9.0191 20.16897 20.169 0 11.1499-9.01912 20.169-20.16897 20.169-11.14988 0-20.16891-9.0191-20.16891-20.169 0-11.1499 9.01903-20.169 20.16891-20.169z" class="s1"/>
      <path id="path24011-2-3-2" d="m161.17769 2297.1366c-3.22227 0-5.84895 2.6268-5.84895 5.8489 0 3.2223 2.62668 5.8501 5.84895 5.8501 3.22222 0 5.85002-2.6278 5.85002-5.8501 0-3.2221-2.6278-5.8489-5.85002-5.8489zm0 1.4089c2.46089 0 4.44114 1.9791 4.44114 4.44 0 2.4608-1.98025 4.4411-4.44114 4.4411-2.46082 0-4.43997-1.9803-4.43997-4.4411 0-2.4609 1.97915-4.44 4.43997-4.44z" class="s1"/>
      <path id="path23943-15-9-7-9-8" d="m161.21311 2299.786c-1.78156 0-3.22677 1.4451-3.22677 3.2268 0 1.7817 1.44521 3.2268 3.22677 3.2268 1.78156 0 3.22684-1.4451 3.22684-3.2268 0-1.7817-1.44528-3.2268-3.22684-3.2268z" class="s0"/>
    </g>
  </g>
</svg>
