<?xml version="1.0" encoding="UTF-8" standalone="no"?>
<svg
   xmlns:dc="http://purl.org/dc/elements/1.1/"
   xmlns:cc="http://creativecommons.org/ns#"
   xmlns:rdf="http://www.w3.org/1999/02/22-rdf-syntax-ns#"
   xmlns:svg="http://www.w3.org/2000/svg"
   xmlns="http://www.w3.org/2000/svg"
   xmlns:xlink="http://www.w3.org/1999/xlink"
   xmlns:sodipodi="http://sodipodi.sourceforge.net/DTD/sodipodi-0.dtd"
   xmlns:inkscape="http://www.inkscape.org/namespaces/inkscape"
   version="1.1"
   width="300"
   height="300"
   viewBox="0 0 300 301.88679"
   id="svg2943"
   inkscape:version="0.48.2 r9819"
   sodipodi:docname="php-logo.svg">
  <metadata
     id="metadata3051">
    <rdf:RDF>
      <cc:Work
         rdf:about="">
        <dc:format>image/svg+xml</dc:format>
        <dc:type
           rdf:resource="http://purl.org/dc/dcmitype/StillImage" />
      </cc:Work>
    </rdf:RDF>
  </metadata>
  <sodipodi:namedview
     pagecolor="#ffffff"
     bordercolor="#666666"
     borderopacity="1"
     objecttolerance="10"
     gridtolerance="10"
     guidetolerance="10"
     inkscape:pageopacity="0"
     inkscape:pageshadow="2"
     inkscape:window-width="1294"
     inkscape:window-height="997"
     id="namedview3049"
     showgrid="false"
     inkscape:zoom="1.12"
     inkscape:cx="150"
     inkscape:cy="79.5"
     inkscape:window-x="0"
     inkscape:window-y="0"
     inkscape:window-maximized="0"
     inkscape:current-layer="svg2943" />
  <defs
     id="defs2945">
    <linearGradient
       x1="150"
       y1="84"
       x2="299"
       y2="84"
       id="linearGradient3798"
       gradientUnits="userSpaceOnUse">
      <stop
         id="stop3800"
         style="stop-color:#dddce9;stop-opacity:1"
         offset="0" />
      <stop
         id="stop3802"
         style="stop-color:#5664a3;stop-opacity:1"
         offset="0.37" />
      <stop
         id="stop3804"
         style="stop-color:#000000;stop-opacity:1"
         offset="1" />
    </linearGradient>
    <radialGradient
       cx="77.914261"
       cy="-48.544521"
       r="146"
       fx="77.914261"
       fy="-48.544521"
       id="radialGradient3870"
       xlink:href="#linearGradient3798"
       gradientUnits="userSpaceOnUse"
       gradientTransform="matrix(1.5089497,0,0,1.3582164,-39.028917,76.957747)" />
  </defs>
  <ellipse
     cx="150"
     cy="80"
     rx="146"
     ry="76"
     id="ellipse3860"
     style="fill:#6c7eb7;stroke:url(#radialGradient3870);stroke-width:5.5"
     sodipodi:cx="150"
     sodipodi:cy="80"
     sodipodi:rx="146"
     sodipodi:ry="76"
     transform="matrix(0.9338193,0,0,0.88542824,9.9271052,86.82971)" />
  <path
     d="m 51.948974,197.50824 14.941108,-71.71969 34.551318,0 c 14.94111,0.88543 22.41166,7.96886 22.41166,20.36485 0,21.25028 -17.74257,33.64628 -33.617495,32.76085 l -16.808748,0 -3.735277,18.59399 -17.742566,0 z m 25.213121,-31.87542 4.669096,-26.56284 12.139651,0 c 6.536738,0 11.205828,2.65628 11.205828,7.96885 -0.93382,15.05228 -8.40437,17.70857 -16.808744,18.59399 l -11.205831,0 z"
     id="p"
     style="fill-rule:evenodd;stroke:#ffffff;stroke-width:1.81860387;stroke-linejoin:round"
     inkscape:connector-curvature="0" />
  <path
     d="m 118.25014,178.91425 14.94111,-71.71969 17.74257,0 -3.73528,18.59399 16.80875,0 c 14.94111,0.88543 20.54402,7.96886 18.67639,16.82314 l -6.53674,36.30256 -18.67639,0 6.53674,-32.76085 c 0.93382,-4.42714 0.93382,-7.08342 -5.60292,-7.08342 l -14.00729,0 -8.40437,39.84427 -17.74257,0 z"
     id="h"
     style="stroke:#ffffff;stroke-width:1.81860387;stroke-linejoin:round"
     inkscape:connector-curvature="0" />
  <use
     transform="translate(125.13179,2.2e-6)"
     id="p2"
     xlink:href="#p"
     x="0"
     y="0"
     width="300"
     height="160" />
</svg>
