<?xml version="1.0" encoding="utf-8"?>
<!-- Generator: Adobe Illustrator 15.0.2, SVG Export Plug-In  -->
<!DOCTYPE svg PUBLIC "-//W3C//DTD SVG 1.1//EN" "http://www.w3.org/Graphics/SVG/1.1/DTD/svg11.dtd" [
	<!ENTITY ns_flows "http://ns.adobe.com/Flows/1.0/">
]>
<svg version="1.1"
	 xmlns="http://www.w3.org/2000/svg" xmlns:xlink="http://www.w3.org/1999/xlink" xmlns:a="http://ns.adobe.com/AdobeSVGViewerExtensions/3.0/"
	 x="0px" y="0px" width="75px" height="75px" viewBox="0 0 75 75" overflow="visible" enable-background="new 0 0 75 75"
	 xml:space="preserve">
<defs>
</defs>
<path fill="#1BB4AB" d="M0,23.529c0,12.973,10.556,23.529,23.529,23.529c0.85,0,1.714-0.05,2.605-0.151l2.101,2.1v9.816
	c0,1.301,1.052,2.353,2.353,2.353h7.059v7.059c0,1.3,1.052,2.353,2.353,2.353h7.059v2.353c0,1.301,1.052,2.353,2.353,2.353h23.529
	c1.301,0,2.353-1.052,2.353-2.353V56.847c0-1.3-0.751-3.088-1.68-4.002L46.861,26.572c0.133-0.983,0.198-1.995,0.198-3.042
	C47.059,10.556,36.502,0,23.529,0C10.556,0,0,10.556,0,23.529z M65.882,65.882H56.47v-4.706h-9.412v-9.412h-9.412V45.11
	l-8.346-8.355l-2.491,0.52c-1.213,0.252-2.284,0.372-3.281,0.372c-7.785,0-14.118-6.333-14.118-14.118
	c0-7.785,6.333-14.118,14.118-14.118c7.785,0,14.118,6.333,14.118,14.118c0,1.218-0.143,2.325-0.427,3.3l-0.781,2.702l29.444,28.916
	V65.882z"/>
<circle fill="#1BB4AB" cx="21.176" cy="21.177" r="7.059"/>
</svg>
