<?xml version="1.0" encoding="utf-8"?>
<!-- Generator: Adobe Illustrator 15.0.2, SVG Export Plug-In  -->
<!DOCTYPE svg PUBLIC "-//W3C//DTD SVG 1.1//EN" "http://www.w3.org/Graphics/SVG/1.1/DTD/svg11.dtd" [
	<!ENTITY ns_flows "http://ns.adobe.com/Flows/1.0/">
]>
<svg version="1.1"
	 xmlns="http://www.w3.org/2000/svg" xmlns:xlink="http://www.w3.org/1999/xlink" xmlns:a="http://ns.adobe.com/AdobeSVGViewerExtensions/3.0/"
	 x="0px" y="0px" width="402px" height="326px" viewBox="-0.5 0 402 326"
	 overflow="visible" enable-background="new -0.5 0 402 326" xml:space="preserve">
<defs>
</defs>
<path fill="#2AA9E0" d="M401.1,38.6c-14.8,6.5-30.6,11-47.3,13c17-10.2,30-26.3,36.2-45.5c-15.9,9.4-33.5,16.3-52.2,20
	c-15-16-36.4-26-60.1-26c-45.4,0-82.3,36.8-82.3,82.3c0,6.4,0.7,12.7,2.1,18.8c-68.4-3.4-129-36.2-169.6-86
	c-7.1,12.2-11.1,26.3-11.1,41.4c0,28.5,14.5,53.7,36.6,68.5c-13.5-0.4-26.2-4.1-37.3-10.3c0,0.3,0,0.7,0,1c0,39.9,28.4,73.1,66,80.7
	c-6.9,1.9-14.2,2.9-21.7,2.9c-5.3,0-10.5-0.5-15.5-1.5c10.5,32.7,40.9,56.5,76.9,57.1C93.7,277,58.2,290.1,19.6,290.1
	c-6.6,0-13.2-0.4-19.6-1.2c36.4,23.3,79.7,37,126.1,37c151.3,0,234.1-125.4,234.1-234.1c0-3.6-0.1-7.1-0.2-10.6
	C376.1,69.6,390,55.1,401.1,38.6z"/>
</svg>
